<svg width="77" height="77" viewBox="0 0 77 77" fill="none" xmlns="http://www.w3.org/2000/svg">
<path d="M49.8628 0C50.0518 0.98716 49.9624 5.89014 49.9609 7.21758C49.9888 12.3476 49.9785 17.4778 49.9272 22.6077C47.8853 21.1822 38.9189 13.7594 37.4131 13.7168C36.8828 13.7019 36.3599 13.9452 36.001 14.3274C35.6523 14.698 35.5483 15.1083 35.5 15.6043C35.2041 18.705 35.459 22.5003 35.4604 25.6756L35.4634 46.6132L24.9136 46.6053L15.3086 46.6091L15.3174 25.5968L49.8628 0Z" fill="#50573E"/>
<path d="M38.272 17.4258C39.1612 17.948 41.0025 19.3904 41.8682 20.0416L48.4937 25.0204C48.709 31.7123 48.5274 39.7409 48.4966 46.5063C47.5957 46.8116 39.6665 46.6097 38.2515 46.6014C37.9849 40.0956 38.3306 33.3658 38.2002 26.8396C38.1402 23.7967 38.1475 20.4606 38.272 17.4258Z" fill="#D0BCA4"/>
<path d="M51.3428 23.9766C54.1099 25.7772 58.8838 29.7023 61.6157 31.822L61.6069 46.6101L51.3354 46.6181C51.271 39.2001 51.2432 31.3771 51.3428 23.9766Z" fill="#C36347"/>
<path d="M47.9243 58.3826C54.2568 58.2545 56.6621 65.3227 52.9868 69.3803C51.8281 70.6569 50.1875 71.3924 48.4634 71.4102C46.5796 71.4247 45.1323 70.6221 43.8257 69.3516L43.7964 71.7865L43.7861 76.2698L41.4336 76.2926V58.6455L43.77 58.6801L43.7993 60.3748C45.3345 59.0346 45.8677 58.6588 47.9243 58.3826Z" fill="#50573E"/>
<path d="M47.7664 60.5936C50.1424 60.4521 52.1785 62.2748 52.3016 64.6527C52.4232 67.0305 50.5833 69.0518 48.2044 69.1538C45.8534 69.2545 43.8612 67.4412 43.741 65.0912C43.6209 62.7411 45.4168 60.7335 47.7664 60.5936Z" fill="#F7F3EF"/>
<path d="M0.019043 53.6188C1.80615 53.6145 7.4414 53.403 8.80078 53.7991C15.2446 55.6773 14.7759 64.6729 6.69873 64.744L2.42725 64.751V71.0952L0 71.091C0.0791 65.299 -0.014647 59.4263 0.019043 53.6188Z" fill="#50573E"/>
<path d="M2.43197 55.9537C4.88705 55.9101 10.0667 55.1295 10.6029 58.3001C10.8241 59.6078 10.6615 60.3918 9.95394 61.4844C8.18587 62.987 4.83578 62.5164 2.43197 62.4757C2.41 60.3122 2.43051 58.1198 2.43197 55.9537Z" fill="#F7F3EF"/>
<path d="M69.7478 58.3848C72.0901 58.505 72.8738 58.7897 74.4485 60.4697L74.4778 58.6552L76.7044 58.6568L76.7029 71.1061L74.4617 71.108L74.4177 69.3417C73.9519 69.8022 73.5798 70.0902 73.0686 70.4945C70.8963 71.6964 68.3635 71.7396 66.2835 70.3007C64.8508 69.299 63.8884 67.7551 63.6218 66.0269C62.9524 61.8642 65.6682 58.8112 69.7478 58.3848Z" fill="#50573E"/>
<path d="M69.2058 60.7266C70.7117 60.364 72.2966 60.8424 73.3513 61.9781C74.4045 63.1138 74.7634 64.73 74.2903 66.2052C73.8171 67.6804 72.5837 68.7852 71.0662 69.0951C68.7737 69.5625 66.531 68.1075 66.0242 65.8248C65.5159 63.542 66.9324 61.2738 69.2058 60.7266Z" fill="#F7F3EF"/>
<path d="M31.5975 58.2013C35.2611 58.1751 38.2625 61.1086 38.3182 64.7729C38.3753 68.4372 35.4661 71.4615 31.8026 71.5481C28.095 71.6356 25.0277 68.6854 24.9705 64.9783C24.9134 61.2711 27.89 58.228 31.5975 58.2013Z" fill="#D0BCA4"/>
<path d="M30.7392 60.7144C32.2494 60.3903 33.8183 60.9062 34.8407 62.064C35.8647 63.2217 36.1825 64.8413 35.6757 66.3005C35.1674 67.7597 33.912 68.8316 32.3915 69.1043C30.0947 69.5164 27.8915 68.011 27.4404 65.7216C26.9906 63.4322 28.4584 61.204 30.7392 60.7144Z" fill="#F7F3EF"/>
<path d="M21.4826 58.5204C22.3249 58.4798 22.7658 58.3381 23.3664 58.8387C23.6286 59.4136 23.5216 60.196 23.4982 60.8615C16.7204 59.809 18.0666 66.5332 18.1105 71.0862L16.1608 71.0936L15.8942 71.0577C15.4884 70.4273 15.7316 60.1912 15.7404 58.666L18.0446 58.6337L18.0124 60.3725C19.2619 59.0931 19.6691 58.8069 21.4826 58.5204Z" fill="#C36347"/>
<path d="M57.9321 58.6562L60.2744 58.6768L60.2759 71.0862L57.9219 71.0876L57.9321 58.6562Z" fill="#50573E"/>
<path d="M58.5464 53.4523C59.0634 53.2342 59.6596 53.3168 60.0976 53.6675C60.5371 54.0182 60.7495 54.5808 60.6499 55.1338C60.5517 55.6868 60.1592 56.1415 59.6259 56.319C58.8437 56.5793 57.997 56.1756 57.707 55.4049C57.417 54.6341 57.7876 53.7719 58.5464 53.4523Z" fill="#C36347"/>
</svg>
