<svg width="127" height="44" viewBox="0 0 127 44" fill="none" xmlns="http://www.w3.org/2000/svg">
<path d="M29.6651 0C29.8271 0.64014 29.7661 5.03906 29.7647 5.88369L29.7661 19.2606C28.0912 18.0602 20.595 11.7838 19.166 11.7933C18.6749 11.7965 18.1663 12.0004 17.833 12.365C17.5195 12.708 17.447 13.0803 17.402 13.5217C17.1183 16.3078 17.3572 19.3373 17.3572 22.1468L17.3522 39.728L7.55654 39.7289L0.00483131 39.7236L0 22.0421C9.93076 14.752 19.8193 7.40449 29.6651 0Z" fill="#50573E"/>
<path d="M19.7874 14.832C20.7346 15.3439 22.441 16.701 23.3642 17.3981C25.1054 18.7115 26.8546 20.0145 28.6114 21.3071C28.6615 27.3973 28.6716 33.4877 28.6414 39.5779C28.2088 39.8539 20.8386 39.7275 19.7807 39.7246C19.7233 31.4271 19.7255 23.1294 19.7874 14.832Z" fill="#D0BCA4"/>
<path d="M97.6886 25.6953C99.7473 25.5475 101.53 25.7236 103.156 27.149C105.922 29.5733 105.83 34.2579 103.403 36.8597C102.251 38.1085 100.625 38.8112 98.926 38.7939C96.8926 38.7793 95.7515 37.9836 94.4135 36.6325L94.44 37.938C94.4181 39.8974 94.4373 41.8918 94.4365 43.8544L92.1396 43.8699L92.1499 25.8856L94.3623 25.8943L94.3968 27.6665C95.6017 26.4599 96.0914 26.1134 97.6886 25.6953Z" fill="#50573E"/>
<path d="M97.7956 27.9399C99.3223 27.6479 100.888 28.203 101.889 29.3914C102.891 30.5798 103.173 32.2165 102.627 33.6718C102.081 35.1271 100.792 36.1742 99.2561 36.4105C96.9397 36.7666 94.7652 35.2017 94.3669 32.8922C93.9687 30.5829 95.4938 28.3801 97.7956 27.9399Z" fill="#F7F3EF"/>
<path d="M118.434 25.7086C121.219 25.4256 122.336 25.6731 124.38 27.6293L124.418 25.8811L126.681 25.874L126.708 38.5498L124.426 38.5381C124.432 38.0565 124.502 37.2997 124.311 36.8925L124.061 37.0648C123.49 37.5948 122.874 38.0386 122.149 38.3369C120.587 38.9713 118.833 38.9341 117.299 38.2337C115.751 37.516 114.554 36.2103 113.972 34.6062C112.505 30.5295 114.458 27.075 118.434 25.7086Z" fill="#50573E"/>
<path d="M119.242 27.9839C121.566 27.463 123.872 28.9316 124.382 31.259C124.892 33.5862 123.413 35.8847 121.083 36.3843C118.769 36.8806 116.489 35.413 115.982 33.1009C115.475 30.7886 116.932 28.5016 119.242 27.9839Z" fill="#F7F3EF"/>
<path d="M51.9688 20.7126C54.8337 20.6994 61.7406 20.0717 63.4172 22.3362C66.9148 27.0602 64.3092 31.9069 58.5436 31.968L54.3529 31.9545L54.3444 38.5447L51.9688 38.5469V20.7126Z" fill="#50573E"/>
<path d="M54.3556 23.0372C55.1985 23.0379 56.8831 23.1025 57.6423 22.997C61.2644 22.4939 64.1742 25.2459 61.6429 28.7615C59.7796 30.1535 56.7782 29.6975 54.3555 29.6564L54.3556 23.0372Z" fill="#F7F3EF"/>
<path d="M31.0782 20.4805C31.815 20.9313 33.4327 22.2077 34.1763 22.7649C36.183 24.2601 38.1794 25.7687 40.1656 27.2908L40.1529 39.72L31.0574 39.7319C31.026 33.3148 31.0329 26.8975 31.0782 20.4805Z" fill="#C36347"/>
<path d="M81.2963 25.7007C84.8837 24.9031 88.4368 27.1707 89.2242 30.7605C90.0114 34.3501 87.7335 37.8966 84.1415 38.6736C80.5643 39.4473 77.0354 37.1807 76.2512 33.6056C75.4673 30.0307 77.7235 26.4951 81.2963 25.7007Z" fill="#D0BCA4"/>
<path d="M82.1856 27.9596C84.513 27.6665 86.6392 29.3102 86.9417 31.6364C87.2442 33.9626 85.6089 36.0954 83.2839 36.4072C80.9459 36.7207 78.7982 35.0742 78.4941 32.7349C78.1898 30.3954 79.8449 28.2543 82.1856 27.9596Z" fill="#F7F3EF"/>
<path d="M72.7642 25.7164C73.6128 25.6666 74.2181 25.5031 74.8468 26.0216C75.1074 26.6029 75.0056 27.4039 74.9871 28.0743C66.7273 26.7309 70.8467 35.7396 69.4775 38.428C69.0902 38.6243 68.4142 38.5575 67.9447 38.5513C67.577 38.5742 67.7039 38.5959 67.3553 38.4372C67.165 37.6083 67.2712 27.4705 67.2763 25.8705L69.6517 25.8388L69.6431 27.4644C70.7392 26.3256 71.268 26.051 72.7642 25.7164Z" fill="#C36347"/>
<path d="M108.135 25.8668L110.473 25.8613L110.467 38.553L108.11 38.5489L108.135 25.8668Z" fill="#50573E"/>
<path d="M108.742 20.4766C109.284 20.2737 109.892 20.3793 110.334 20.7528C110.776 21.1264 110.981 21.7094 110.871 22.2771C110.761 22.8449 110.353 23.309 109.803 23.4903C108.977 23.7631 108.084 23.3245 107.795 22.5038C107.506 21.683 107.927 20.7818 108.742 20.4766Z" fill="#C36347"/>
</svg>
