<svg width="59" height="58" viewBox="0 0 59 58" fill="none" xmlns="http://www.w3.org/2000/svg">
<path d="M43.0342 0C43.3535 0.48926 43.2027 24.6885 43.1983 28.0869C40.6978 26.4404 29.4111 17.2925 27.583 17.146C26.9546 17.0962 26.2222 17.3584 25.7593 17.7832C25.2949 18.208 25.1719 18.7031 25.0972 19.3096C24.9185 20.7759 25.0122 22.3315 25.0137 23.8081L25.0151 31.3726L24.9858 57.4424L11.1152 57.4409L0.00732422 57.4468L0 32.2778C4.35645 29.2603 9.50537 25.2056 13.8003 21.9873L43.0342 0Z" fill="#50573E"/>
<path d="M28.314 21.4863C29.3818 22.0752 31.7432 23.896 32.8301 24.6973L41.4551 31.0693L41.4492 57.4468L28.3301 57.4556C28.1777 45.75 28.1909 33.1919 28.314 21.4863Z" fill="#D0BCA4"/>
<path d="M45.0215 29.6582C49.0454 32.4619 54.3013 36.7012 58.312 39.729L58.3179 57.4697C54.0127 57.3555 49.3369 57.4448 45.0039 57.4463L45.0215 29.6582Z" fill="#C36347"/>
</svg>
