<svg width="300" height="300" viewBox="0 0 300 300" fill="none" xmlns="http://www.w3.org/2000/svg">
<rect width="300" height="300" fill="#6056F0" fill-opacity="0.15"/>
<g clip-path="url(#clip0_4045_11230)">
<path d="M137.792 165C137.042 165 136.389 164.722 135.833 164.167C135.278 163.611 135 162.958 135 162.208V137.792C135 137.042 135.278 136.389 135.833 135.833C136.389 135.278 137.042 135 137.792 135H162.208C162.958 135 163.611 135.278 164.167 135.833C164.722 136.389 165 137.042 165 137.792V162.208C165 162.958 164.722 163.611 164.167 164.167C163.611 164.722 162.958 165 162.208 165H137.792ZM137.792 162.208H162.208V137.792H137.792V162.208ZM139.875 158.417H160.125L153.958 150.208L148.625 157.167L144.792 151.958L139.875 158.417ZM137.792 162.208V137.792V162.208Z" fill="#7168F6"/>
</g>
<defs>
<clipPath id="clip0_4045_11230">
<rect width="48" height="48" fill="white" transform="translate(126 126)"/>
</clipPath>
</defs>
</svg>
